<?xml version="1.0" standalone="no"?><!DOCTYPE svg PUBLIC "-//W3C//DTD SVG 1.1//EN" "http://www.w3.org/Graphics/SVG/1.1/DTD/svg11.dtd"><svg width="100%" height="100%" viewBox="0 0 100 62" version="1.1" xmlns="http://www.w3.org/2000/svg" xmlns:xlink="http://www.w3.org/1999/xlink" xml:space="preserve" style="fill-rule:evenodd;clip-rule:evenodd;stroke-linejoin:round;stroke-miterlimit:1.41421;"><g id="Layer1"><g id="artwork"><path d="M88.2242,18.5c-0.334674,-11.8506 -9.58639,-17.2928 -17.2519,-17.2972c-8.60841,-0.00495973 -13.2298,6.00304 -13.5028,6.54804c0,0.091 -8.80962,26.7068 -8.99162,27.2518c-0.363,-0.636 -5.97752,-12.182 -6.34152,-12.909c-0.181,-0.454 -0.385927,-0.818 -0.657927,-1.181c-0.455,-0.636 -0.947215,-1.25249 -1.60052,-1.66233c-0.895329,-0.561663 -1.75781,-1.27358 -3.87788,-1.30935c-3.06248,-0.0516693 -5.38882,1.64741 -6.56982,4.00941c-0.455,0.818 -6.17134,12.3487 -6.44434,12.9847c-0.091,-0.364 -8.42901,-24.6841 -8.79301,-25.6841c-0.268014,-0.736303 -0.402146,-1.2057 -0.790425,-1.87629c-0.491805,-0.849387 -1.59291,-2.08843 -2.80468,-2.71064c-0.999737,-0.513341 -2.7819,-0.905701 -4.19132,-0.742361c-2.44221,0.283032 -4.543,1.727 -5.633,3.907c-0.908,1.727 -0.999,3.726 -0.363,5.543c0.091,0.363 14.5323,42.1504 14.6607,42.6284c1.11066,4.13438 5.28865,5.10935 6.55625,4.99498c1.41169,0.0102419 4.67602,-0.389893 6.49257,-4.03411c0.154667,-0.31028 0.29975,-0.608688 0.493675,-0.988453l7.39861,-14.4618c0,0 6.51964,12.859 7.09302,14.1604c1.62339,3.68468 3.56161,5.169 6.90858,5.32749c3.25248,0.15402 5.62862,-2.07282 6.53762,-4.34382c0.181,-0.363 7.38738,-21.523 7.38738,-21.523c0.272,0.272 23.7174,23.7297 23.8994,23.9107c1,1 2.24922,1.66624 3.61122,1.93824c0.455,0.091 0.909,0.091 1.363,0.091c1.999,0 3.998,-0.818 5.361,-2.362c1.726,-1.908 2.271,-4.634 1.454,-7.087c-0.364,-1 -0.909,-1.999 -1.727,-2.726c-0.363,-0.363 -16.4467,-16.435 -16.6277,-16.617c3.05106,-2.39363 7.14339,-6.98485 6.9515,-13.7796ZM70.9733,2.19548c8.38406,-0.0880514 16.4358,6.78822 16.2987,16.354c-0.103457,7.21686 -4.52012,11.573 -6.5476,12.9023l-0.939938,0.671868l17.3357,17.299c0,0 1.23528,1.38202 1.50728,2.29102c0.727,2.089 0.182,4.543 -1.272,6.178c-1.181,1.272 -2.907,2.09 -4.634,2.09c-0.363,0 -0.817,0 -1.181,-0.091c-1.181,-0.273 -2.22483,-0.833389 -3.13383,-1.65039l-24.8619,-24.8592c0,0 -7.76182,22.6026 -7.85282,22.8756c-0.817,1.999 -2.90464,3.81008 -5.6735,3.7655c-3.08397,-0.0496502 -4.48513,-2.00947 -5.12113,-3.00947c-0.273,-0.454 -8.8136,-17.654 -8.8136,-17.654l-8.50989,16.7049c-1.89119,3.40017 -4.07365,3.94062 -5.95124,3.95278c-2.00185,-0.113617 -4.3776,-1.09493 -5.47725,-3.93011c-0.155161,-0.400043 -14.8903,-42.9876 -14.8903,-42.9876c-0.545,-1.635 -0.342736,-3.28446 0.494986,-4.87429c0.940712,-1.78529 2.71036,-2.92151 4.28175,-3.26323c1.53506,-0.333813 3.10069,0.142514 4.00969,0.596514c2.63006,1.31358 3.089,3.634 3.271,4.179l9.57231,27.8325l7.43783,-15.2248c1.10012,-2.28682 2.96776,-3.42165 5.64197,-3.42711c1.7824,-0.00363939 3.71773,0.933976 4.81475,2.63134c0.246543,0.381464 7.78922,16.0622 7.78922,16.0622l9.75878,-29.3409c1.64927,-1.99087 5.79776,-6.00247 12.646,-6.07439Z" style="fill:#f33;fill-rule:nonzero;"/></g></g></svg>